<mxfile host="app.diagrams.net" agent="Mozilla/5.0 (Windows NT 10.0; Win64; x64) AppleWebKit/537.36 (KHTML, like Gecko) Chrome/128.0.0.0 Safari/537.36" version="24.7.12">
  <diagram name="Page-1" id="uvbK2rB1im_UFAQpM1Mg">
    <mxGraphModel dx="880" dy="434" grid="1" gridSize="10" guides="1" tooltips="1" connect="1" arrows="1" fold="1" page="1" pageScale="1" pageWidth="850" pageHeight="1100" math="0" shadow="0">
      <root>
        <mxCell id="0" />
        <mxCell id="1" parent="0" />
        <mxCell id="ZdAE1cgL8-j8ZhJU6nY8-1" value="&lt;b&gt;GAT Layer&lt;/b&gt;&lt;div&gt;heads = 10&lt;/div&gt;&lt;div&gt;input features length = 78&lt;/div&gt;&lt;div&gt;output features length = 78&lt;/div&gt;&lt;div&gt;activation function = RELU&lt;/div&gt;" style="rounded=0;whiteSpace=wrap;html=1;fillColor=#d5e8d4;strokeColor=#82b366;" vertex="1" parent="1">
          <mxGeometry x="309" y="860" width="200" height="70" as="geometry" />
        </mxCell>
        <mxCell id="ZdAE1cgL8-j8ZhJU6nY8-2" value="&lt;b&gt;A&lt;/b&gt;" style="whiteSpace=wrap;html=1;aspect=fixed;dashed=1;" vertex="1" parent="1">
          <mxGeometry x="349" y="992" width="40" height="40" as="geometry" />
        </mxCell>
        <mxCell id="ZdAE1cgL8-j8ZhJU6nY8-3" value="&lt;b&gt;X&lt;/b&gt;" style="whiteSpace=wrap;html=1;aspect=fixed;dashed=1;" vertex="1" parent="1">
          <mxGeometry x="429" y="992" width="38" height="38" as="geometry" />
        </mxCell>
        <mxCell id="ZdAE1cgL8-j8ZhJU6nY8-4" value="" style="endArrow=classic;startArrow=classic;html=1;rounded=0;" edge="1" parent="1">
          <mxGeometry width="50" height="50" relative="1" as="geometry">
            <mxPoint x="349" y="982" as="sourcePoint" />
            <mxPoint x="389" y="982" as="targetPoint" />
          </mxGeometry>
        </mxCell>
        <mxCell id="ZdAE1cgL8-j8ZhJU6nY8-5" value="" style="endArrow=classic;startArrow=classic;html=1;rounded=0;" edge="1" parent="1">
          <mxGeometry width="50" height="50" relative="1" as="geometry">
            <mxPoint x="429" y="981" as="sourcePoint" />
            <mxPoint x="469" y="981" as="targetPoint" />
          </mxGeometry>
        </mxCell>
        <mxCell id="ZdAE1cgL8-j8ZhJU6nY8-6" value="" style="endArrow=classic;startArrow=classic;html=1;rounded=0;" edge="1" parent="1">
          <mxGeometry width="50" height="50" relative="1" as="geometry">
            <mxPoint x="339" y="1032" as="sourcePoint" />
            <mxPoint x="339" y="991" as="targetPoint" />
          </mxGeometry>
        </mxCell>
        <mxCell id="ZdAE1cgL8-j8ZhJU6nY8-7" value="N" style="edgeLabel;html=1;align=center;verticalAlign=middle;resizable=0;points=[];" vertex="1" connectable="0" parent="ZdAE1cgL8-j8ZhJU6nY8-6">
          <mxGeometry x="-0.0732" y="4" relative="1" as="geometry">
            <mxPoint x="-2" as="offset" />
          </mxGeometry>
        </mxCell>
        <mxCell id="ZdAE1cgL8-j8ZhJU6nY8-8" value="" style="endArrow=classic;startArrow=classic;html=1;rounded=0;" edge="1" parent="1">
          <mxGeometry width="50" height="50" relative="1" as="geometry">
            <mxPoint x="421" y="1033" as="sourcePoint" />
            <mxPoint x="421" y="992" as="targetPoint" />
          </mxGeometry>
        </mxCell>
        <mxCell id="ZdAE1cgL8-j8ZhJU6nY8-9" value="N" style="text;html=1;align=center;verticalAlign=middle;resizable=0;points=[];autosize=1;strokeColor=none;fillColor=none;" vertex="1" parent="1">
          <mxGeometry x="354" y="960" width="30" height="30" as="geometry" />
        </mxCell>
        <mxCell id="ZdAE1cgL8-j8ZhJU6nY8-10" value="78" style="text;html=1;align=center;verticalAlign=middle;resizable=0;points=[];autosize=1;strokeColor=none;fillColor=none;" vertex="1" parent="1">
          <mxGeometry x="429" y="960" width="40" height="30" as="geometry" />
        </mxCell>
        <mxCell id="ZdAE1cgL8-j8ZhJU6nY8-11" value="N" style="edgeLabel;html=1;align=center;verticalAlign=middle;resizable=0;points=[];" vertex="1" connectable="0" parent="1">
          <mxGeometry x="409" y="962" as="geometry">
            <mxPoint x="5" y="48" as="offset" />
          </mxGeometry>
        </mxCell>
        <mxCell id="ZdAE1cgL8-j8ZhJU6nY8-12" value="" style="endArrow=classic;html=1;rounded=0;entryX=0.295;entryY=1.05;entryDx=0;entryDy=0;entryPerimeter=0;dashed=1;" edge="1" parent="1">
          <mxGeometry width="50" height="50" relative="1" as="geometry">
            <mxPoint x="369" y="960" as="sourcePoint" />
            <mxPoint x="369" y="932" as="targetPoint" />
          </mxGeometry>
        </mxCell>
        <mxCell id="ZdAE1cgL8-j8ZhJU6nY8-13" value="" style="endArrow=classic;html=1;rounded=0;entryX=0.295;entryY=1.05;entryDx=0;entryDy=0;entryPerimeter=0;dashed=1;" edge="1" parent="1">
          <mxGeometry width="50" height="50" relative="1" as="geometry">
            <mxPoint x="449" y="960" as="sourcePoint" />
            <mxPoint x="448.5" y="930" as="targetPoint" />
          </mxGeometry>
        </mxCell>
        <mxCell id="ZdAE1cgL8-j8ZhJU6nY8-14" value="" style="endArrow=classic;startArrow=classic;html=1;rounded=0;" edge="1" parent="1">
          <mxGeometry width="50" height="50" relative="1" as="geometry">
            <mxPoint x="392" y="791" as="sourcePoint" />
            <mxPoint x="613" y="790" as="targetPoint" />
          </mxGeometry>
        </mxCell>
        <mxCell id="ZdAE1cgL8-j8ZhJU6nY8-15" value="" style="endArrow=classic;startArrow=classic;html=1;rounded=0;" edge="1" parent="1">
          <mxGeometry width="50" height="50" relative="1" as="geometry">
            <mxPoint x="384" y="843" as="sourcePoint" />
            <mxPoint x="384" y="802" as="targetPoint" />
          </mxGeometry>
        </mxCell>
        <mxCell id="ZdAE1cgL8-j8ZhJU6nY8-16" value="N" style="edgeLabel;html=1;align=center;verticalAlign=middle;resizable=0;points=[];" vertex="1" connectable="0" parent="ZdAE1cgL8-j8ZhJU6nY8-15">
          <mxGeometry x="-0.0244" y="1" relative="1" as="geometry">
            <mxPoint as="offset" />
          </mxGeometry>
        </mxCell>
        <mxCell id="ZdAE1cgL8-j8ZhJU6nY8-17" value="" style="endArrow=classic;html=1;rounded=0;dashed=1;exitX=0.693;exitY=0;exitDx=0;exitDy=0;exitPerimeter=0;" edge="1" parent="1" source="ZdAE1cgL8-j8ZhJU6nY8-1">
          <mxGeometry width="50" height="50" relative="1" as="geometry">
            <mxPoint x="448.5" y="822" as="sourcePoint" />
            <mxPoint x="448" y="840" as="targetPoint" />
          </mxGeometry>
        </mxCell>
        <mxCell id="ZdAE1cgL8-j8ZhJU6nY8-18" value="" style="rounded=0;whiteSpace=wrap;html=1;dashed=1;" vertex="1" parent="1">
          <mxGeometry x="392" y="801" width="221" height="40" as="geometry" />
        </mxCell>
        <mxCell id="ZdAE1cgL8-j8ZhJU6nY8-19" value="78 * 10" style="text;html=1;align=center;verticalAlign=middle;resizable=0;points=[];autosize=1;strokeColor=none;fillColor=none;" vertex="1" parent="1">
          <mxGeometry x="473" y="602" width="60" height="30" as="geometry" />
        </mxCell>
        <mxCell id="ZdAE1cgL8-j8ZhJU6nY8-20" value="&lt;b&gt;GCN Layer&lt;/b&gt;&lt;div&gt;input features length = 78 * 10&lt;/div&gt;&lt;div&gt;output features length =&amp;nbsp;&lt;span style=&quot;background-color: initial;&quot;&gt;78 * 10&lt;/span&gt;&lt;/div&gt;&lt;div&gt;activation function = RELU&lt;/div&gt;" style="rounded=0;whiteSpace=wrap;html=1;fillColor=#d5e8d4;strokeColor=#82b366;" vertex="1" parent="1">
          <mxGeometry x="309" y="690" width="200" height="60" as="geometry" />
        </mxCell>
        <mxCell id="ZdAE1cgL8-j8ZhJU6nY8-21" value="" style="endArrow=classic;html=1;rounded=0;dashed=1;" edge="1" parent="1">
          <mxGeometry width="50" height="50" relative="1" as="geometry">
            <mxPoint x="448" y="790" as="sourcePoint" />
            <mxPoint x="448" y="750" as="targetPoint" />
          </mxGeometry>
        </mxCell>
        <mxCell id="ZdAE1cgL8-j8ZhJU6nY8-22" value="" style="endArrow=classic;html=1;rounded=0;dashed=1;" edge="1" parent="1">
          <mxGeometry width="50" height="50" relative="1" as="geometry">
            <mxPoint x="369" y="950" as="sourcePoint" />
            <mxPoint x="360" y="750" as="targetPoint" />
            <Array as="points">
              <mxPoint x="280" y="950" />
              <mxPoint x="280" y="840" />
              <mxPoint x="360" y="840" />
            </Array>
          </mxGeometry>
        </mxCell>
        <mxCell id="ZdAE1cgL8-j8ZhJU6nY8-23" value="" style="endArrow=classic;startArrow=classic;html=1;rounded=0;" edge="1" parent="1">
          <mxGeometry width="50" height="50" relative="1" as="geometry">
            <mxPoint x="392" y="623" as="sourcePoint" />
            <mxPoint x="613" y="622" as="targetPoint" />
          </mxGeometry>
        </mxCell>
        <mxCell id="ZdAE1cgL8-j8ZhJU6nY8-24" value="" style="endArrow=classic;startArrow=classic;html=1;rounded=0;" edge="1" parent="1">
          <mxGeometry width="50" height="50" relative="1" as="geometry">
            <mxPoint x="384" y="673" as="sourcePoint" />
            <mxPoint x="384" y="632" as="targetPoint" />
          </mxGeometry>
        </mxCell>
        <mxCell id="ZdAE1cgL8-j8ZhJU6nY8-25" value="N" style="edgeLabel;html=1;align=center;verticalAlign=middle;resizable=0;points=[];" vertex="1" connectable="0" parent="ZdAE1cgL8-j8ZhJU6nY8-24">
          <mxGeometry x="-0.0244" y="1" relative="1" as="geometry">
            <mxPoint as="offset" />
          </mxGeometry>
        </mxCell>
        <mxCell id="ZdAE1cgL8-j8ZhJU6nY8-26" value="" style="endArrow=classic;html=1;rounded=0;dashed=1;exitX=0.693;exitY=0;exitDx=0;exitDy=0;exitPerimeter=0;" edge="1" parent="1">
          <mxGeometry width="50" height="50" relative="1" as="geometry">
            <mxPoint x="448" y="690" as="sourcePoint" />
            <mxPoint x="448" y="670" as="targetPoint" />
          </mxGeometry>
        </mxCell>
        <mxCell id="ZdAE1cgL8-j8ZhJU6nY8-27" value="" style="rounded=0;whiteSpace=wrap;html=1;dashed=1;" vertex="1" parent="1">
          <mxGeometry x="392" y="630" width="221" height="40" as="geometry" />
        </mxCell>
        <mxCell id="ZdAE1cgL8-j8ZhJU6nY8-28" value="78 * 10" style="text;html=1;align=center;verticalAlign=middle;resizable=0;points=[];autosize=1;strokeColor=none;fillColor=none;" vertex="1" parent="1">
          <mxGeometry x="483" y="772" width="60" height="30" as="geometry" />
        </mxCell>
        <mxCell id="ZdAE1cgL8-j8ZhJU6nY8-30" value="&lt;b&gt;Global Max Pooling&lt;/b&gt;" style="rounded=0;whiteSpace=wrap;html=1;fillColor=#d5e8d4;strokeColor=#82b366;" vertex="1" parent="1">
          <mxGeometry x="320" y="540" width="120" height="20" as="geometry" />
        </mxCell>
        <mxCell id="ZdAE1cgL8-j8ZhJU6nY8-31" value="" style="endArrow=classic;html=1;rounded=0;dashed=1;" edge="1" parent="1">
          <mxGeometry width="50" height="50" relative="1" as="geometry">
            <mxPoint x="382" y="540" as="sourcePoint" />
            <mxPoint x="382.5" y="520" as="targetPoint" />
          </mxGeometry>
        </mxCell>
        <mxCell id="ZdAE1cgL8-j8ZhJU6nY8-32" value="1" style="edgeLabel;html=1;align=center;verticalAlign=middle;resizable=0;points=[];" vertex="1" connectable="0" parent="1">
          <mxGeometry x="331" y="518" as="geometry">
            <mxPoint x="-4" y="-8" as="offset" />
          </mxGeometry>
        </mxCell>
        <mxCell id="ZdAE1cgL8-j8ZhJU6nY8-33" value="" style="rounded=0;whiteSpace=wrap;html=1;dashed=1;" vertex="1" parent="1">
          <mxGeometry x="280" y="510" width="220" height="10" as="geometry" />
        </mxCell>
        <mxCell id="ZdAE1cgL8-j8ZhJU6nY8-38" value="" style="endArrow=classic;html=1;rounded=0;dashed=1;exitX=0.693;exitY=0;exitDx=0;exitDy=0;exitPerimeter=0;" edge="1" parent="1">
          <mxGeometry width="50" height="50" relative="1" as="geometry">
            <mxPoint x="502" y="609" as="sourcePoint" />
            <mxPoint x="502" y="589" as="targetPoint" />
          </mxGeometry>
        </mxCell>
        <mxCell id="ZdAE1cgL8-j8ZhJU6nY8-39" value="" style="endArrow=classic;html=1;rounded=0;dashed=1;entryX=0.5;entryY=1;entryDx=0;entryDy=0;" edge="1" parent="1" target="ZdAE1cgL8-j8ZhJU6nY8-30">
          <mxGeometry width="50" height="50" relative="1" as="geometry">
            <mxPoint x="500" y="590" as="sourcePoint" />
            <mxPoint x="360" y="590" as="targetPoint" />
            <Array as="points">
              <mxPoint x="380" y="590" />
            </Array>
          </mxGeometry>
        </mxCell>
        <mxCell id="ZdAE1cgL8-j8ZhJU6nY8-40" value="78 * 10" style="text;html=1;align=center;verticalAlign=middle;resizable=0;points=[];autosize=1;strokeColor=none;fillColor=none;" vertex="1" parent="1">
          <mxGeometry x="361" y="480" width="60" height="30" as="geometry" />
        </mxCell>
        <mxCell id="ZdAE1cgL8-j8ZhJU6nY8-41" value="" style="endArrow=classic;startArrow=classic;html=1;rounded=0;" edge="1" parent="1">
          <mxGeometry width="50" height="50" relative="1" as="geometry">
            <mxPoint x="280" y="501" as="sourcePoint" />
            <mxPoint x="501" y="500" as="targetPoint" />
          </mxGeometry>
        </mxCell>
        <mxCell id="ZdAE1cgL8-j8ZhJU6nY8-42" value="" style="endArrow=classic;html=1;rounded=0;dashed=1;" edge="1" parent="1">
          <mxGeometry width="50" height="50" relative="1" as="geometry">
            <mxPoint x="510" y="590" as="sourcePoint" />
            <mxPoint x="610" y="560" as="targetPoint" />
            <Array as="points">
              <mxPoint x="610" y="590" />
            </Array>
          </mxGeometry>
        </mxCell>
        <mxCell id="ZdAE1cgL8-j8ZhJU6nY8-43" value="&lt;b&gt;Global Mean Pooling&lt;/b&gt;" style="rounded=0;whiteSpace=wrap;html=1;fillColor=#d5e8d4;strokeColor=#82b366;" vertex="1" parent="1">
          <mxGeometry x="549" y="540" width="151" height="20" as="geometry" />
        </mxCell>
        <mxCell id="ZdAE1cgL8-j8ZhJU6nY8-44" value="" style="endArrow=classic;html=1;rounded=0;dashed=1;" edge="1" parent="1">
          <mxGeometry width="50" height="50" relative="1" as="geometry">
            <mxPoint x="611" y="540" as="sourcePoint" />
            <mxPoint x="611.5" y="520" as="targetPoint" />
          </mxGeometry>
        </mxCell>
        <mxCell id="ZdAE1cgL8-j8ZhJU6nY8-45" value="1" style="edgeLabel;html=1;align=center;verticalAlign=middle;resizable=0;points=[];" vertex="1" connectable="0" parent="1">
          <mxGeometry x="560" y="518" as="geometry">
            <mxPoint x="-4" y="-8" as="offset" />
          </mxGeometry>
        </mxCell>
        <mxCell id="ZdAE1cgL8-j8ZhJU6nY8-46" value="" style="rounded=0;whiteSpace=wrap;html=1;dashed=1;" vertex="1" parent="1">
          <mxGeometry x="509" y="510" width="220" height="10" as="geometry" />
        </mxCell>
        <mxCell id="ZdAE1cgL8-j8ZhJU6nY8-47" value="" style="endArrow=classic;startArrow=classic;html=1;rounded=0;" edge="1" parent="1">
          <mxGeometry width="50" height="50" relative="1" as="geometry">
            <mxPoint x="509" y="501" as="sourcePoint" />
            <mxPoint x="730" y="500" as="targetPoint" />
          </mxGeometry>
        </mxCell>
        <mxCell id="ZdAE1cgL8-j8ZhJU6nY8-51" value="78 * 10" style="text;html=1;align=center;verticalAlign=middle;resizable=0;points=[];autosize=1;strokeColor=none;fillColor=none;" vertex="1" parent="1">
          <mxGeometry x="580" y="480" width="60" height="30" as="geometry" />
        </mxCell>
        <mxCell id="ZdAE1cgL8-j8ZhJU6nY8-52" value="" style="endArrow=classic;html=1;rounded=0;dashed=1;" edge="1" parent="1">
          <mxGeometry width="50" height="50" relative="1" as="geometry">
            <mxPoint x="392" y="483" as="sourcePoint" />
            <mxPoint x="490" y="460" as="targetPoint" />
          </mxGeometry>
        </mxCell>
        <mxCell id="ZdAE1cgL8-j8ZhJU6nY8-54" value="" style="endArrow=classic;html=1;rounded=0;dashed=1;exitX=0.317;exitY=0.1;exitDx=0;exitDy=0;exitPerimeter=0;" edge="1" parent="1" source="ZdAE1cgL8-j8ZhJU6nY8-51">
          <mxGeometry width="50" height="50" relative="1" as="geometry">
            <mxPoint x="402" y="493" as="sourcePoint" />
            <mxPoint x="530" y="460" as="targetPoint" />
          </mxGeometry>
        </mxCell>
        <mxCell id="ZdAE1cgL8-j8ZhJU6nY8-55" value="&lt;b&gt;||&lt;/b&gt;" style="rounded=0;whiteSpace=wrap;html=1;fillColor=#d5e8d4;strokeColor=#82b366;" vertex="1" parent="1">
          <mxGeometry x="496" y="450" width="23" height="20" as="geometry" />
        </mxCell>
        <mxCell id="ZdAE1cgL8-j8ZhJU6nY8-56" value="" style="endArrow=classic;html=1;rounded=0;dashed=1;exitX=0.317;exitY=0.1;exitDx=0;exitDy=0;exitPerimeter=0;" edge="1" parent="1">
          <mxGeometry width="50" height="50" relative="1" as="geometry">
            <mxPoint x="509" y="443" as="sourcePoint" />
            <mxPoint x="509" y="420" as="targetPoint" />
          </mxGeometry>
        </mxCell>
        <mxCell id="ZdAE1cgL8-j8ZhJU6nY8-57" value="&lt;b&gt;Linear Layer&lt;/b&gt;&lt;div&gt;input length = 78*10*2&lt;/div&gt;&lt;div&gt;output length = 1500&lt;/div&gt;&lt;div&gt;activation function = RELU&lt;br&gt;&lt;/div&gt;" style="rounded=0;whiteSpace=wrap;html=1;fillColor=#d5e8d4;strokeColor=#82b366;" vertex="1" parent="1">
          <mxGeometry x="389" y="351" width="260" height="60" as="geometry" />
        </mxCell>
        <mxCell id="ZdAE1cgL8-j8ZhJU6nY8-58" value="" style="endArrow=classic;html=1;rounded=0;entryX=0.295;entryY=1.05;entryDx=0;entryDy=0;entryPerimeter=0;dashed=1;" edge="1" parent="1">
          <mxGeometry width="50" height="50" relative="1" as="geometry">
            <mxPoint x="509" y="351" as="sourcePoint" />
            <mxPoint x="508" y="331" as="targetPoint" />
          </mxGeometry>
        </mxCell>
        <mxCell id="ZdAE1cgL8-j8ZhJU6nY8-59" value="&lt;b&gt;Linear Layer&lt;/b&gt;&lt;div&gt;input length = 1500&lt;/div&gt;&lt;div&gt;output length = 128&lt;/div&gt;" style="rounded=0;whiteSpace=wrap;html=1;fillColor=#d5e8d4;strokeColor=#82b366;" vertex="1" parent="1">
          <mxGeometry x="389" y="281" width="260" height="50" as="geometry" />
        </mxCell>
        <mxCell id="ZdAE1cgL8-j8ZhJU6nY8-60" value="&lt;b&gt;output&lt;/b&gt;" style="rounded=0;whiteSpace=wrap;html=1;dashed=1;" vertex="1" parent="1">
          <mxGeometry x="423.5" y="236" width="171" height="20" as="geometry" />
        </mxCell>
        <mxCell id="ZdAE1cgL8-j8ZhJU6nY8-61" value="" style="endArrow=classic;startArrow=classic;html=1;rounded=0;" edge="1" parent="1">
          <mxGeometry width="50" height="50" relative="1" as="geometry">
            <mxPoint x="423.5" y="231" as="sourcePoint" />
            <mxPoint x="594.5" y="230" as="targetPoint" />
          </mxGeometry>
        </mxCell>
        <mxCell id="ZdAE1cgL8-j8ZhJU6nY8-62" value="128" style="text;html=1;align=center;verticalAlign=middle;resizable=0;points=[];autosize=1;strokeColor=none;fillColor=none;" vertex="1" parent="1">
          <mxGeometry x="494.5" y="210" width="40" height="30" as="geometry" />
        </mxCell>
        <mxCell id="ZdAE1cgL8-j8ZhJU6nY8-63" value="" style="endArrow=classic;html=1;rounded=0;entryX=0.5;entryY=1;entryDx=0;entryDy=0;dashed=1;" edge="1" parent="1" target="ZdAE1cgL8-j8ZhJU6nY8-60">
          <mxGeometry width="50" height="50" relative="1" as="geometry">
            <mxPoint x="509" y="277" as="sourcePoint" />
            <mxPoint x="508" y="276" as="targetPoint" />
          </mxGeometry>
        </mxCell>
      </root>
    </mxGraphModel>
  </diagram>
</mxfile>
